<svg xmlns="http://www.w3.org/2000/svg" viewBox="0 0 48 48" xmlns:xlink="http://www.w3.org/1999/xlink" xml:space="preserve" width="100%" height="100%"><path xmlns="http://www.w3.org/2000/svg" d="M36.656 45c-1.83 0-4.4-.662-8.25-2.812-4.68-2.626-8.301-5.049-12.957-9.692-4.489-4.486-6.673-7.39-9.73-12.954-3.454-6.281-2.865-9.574-2.207-10.98.784-1.683 1.94-2.689 3.436-3.687A16.5 16.5 0 0 1 9.633 3.45l.259-.113c.464-.21 1.167-.525 2.057-.188.595.223 1.125.68 1.956 1.5 1.703 1.68 4.031 5.422 4.89 7.26.577 1.238.958 2.055.96 2.972 0 1.073-.54 1.901-1.196 2.795q-.185.25-.363.483c-.714.938-.87 1.209-.767 1.693.21.972 1.768 3.866 4.33 6.422s5.373 4.018 6.35 4.226c.503.108.78-.056 1.748-.794q.206-.16.43-.326c1-.743 1.789-1.27 2.837-1.27h.005c.913 0 1.694.397 2.987 1.05 1.688.85 5.542 3.148 7.232 4.853.822.83 1.28 1.358 1.505 1.951.337.894.02 1.594-.188 2.063q-.052.116-.113.258a16.6 16.6 0 0 1-1.434 2.68c-.996 1.49-2.006 2.644-3.691 3.428a6.3 6.3 0 0 1-2.77.607" style="fill: rgb(255, 130, 99);"></path></svg>