<svg xmlns="http://www.w3.org/2000/svg" viewBox="0 0 48 48" xmlns:xlink="http://www.w3.org/1999/xlink" xml:space="preserve" width="100%" height="100%"><path xmlns="http://www.w3.org/2000/svg" fill="#212121" d="M6 6.1A6.98 6.98 0 0 0 4 11v22a7 7 0 0 0 7 7h14.028q.152-.76.56-1.472L27.048 36H11a3 3 0 0 1-3-3V14h28v2.508a9 9 0 0 1 4-.49V11a6.98 6.98 0 0 0-2-4.9V6h-.1A7 7 0 0 0 33 4H11a6.98 6.98 0 0 0-4.9 2H6zM38.424 18a7 7 0 0 1 1.92.088l-3.302 5.716a2.334 2.334 0 1 0 4.04 2.334l3.302-5.718a7.002 7.002 0 0 1-5.95 11.524l-6.062 10.5a2.917 2.917 0 0 1-5.054-2.916l6.052-10.48A7 7 0 0 1 38.424 18m-17.82.486a1.5 1.5 0 0 1-.09 2.12L15.72 25l4.794 4.394a1.5 1.5 0 0 1-2.028 2.212l-6-5.5a1.5 1.5 0 0 1 0-2.212l6-5.5a1.5 1.5 0 0 1 2.12.092Zm5.91 13.12 4.04-3.704a9 9 0 0 1-.016-5.82l-4.024-3.688a1.5 1.5 0 0 0-2.028 2.212L29.28 25l-4.794 4.394a1.5 1.5 0 0 0 2.028 2.212" style="fill: rgb(255, 255, 255);"></path></svg>