<svg xmlns="http://www.w3.org/2000/svg" viewBox="0 0 48 48" xmlns:xlink="http://www.w3.org/1999/xlink" xml:space="preserve" width="100%" height="100%"><g xmlns="http://www.w3.org/2000/svg" fill="currentColor" transform="scale(3)"><path fill-rule="evenodd" d="M4 11H2v3h2zm5-4H7v7h2zm5-5h-2v12h2zm-2-1a1 1 0 0 0-1 1v12a1 1 0 0 0 1 1h2a1 1 0 0 0 1-1V2a1 1 0 0 0-1-1zM6 7a1 1 0 0 1 1-1h2a1 1 0 0 1 1 1v7a1 1 0 0 1-1 1H7a1 1 0 0 1-1-1zm-5 4a1 1 0 0 1 1-1h2a1 1 0 0 1 1 1v3a1 1 0 0 1-1 1H2a1 1 0 0 1-1-1z" style="fill: rgb(255, 255, 255);"></path><path fill-rule="evenodd" d="M0 14.5a.5.5 0 0 1 .5-.5h15a.5.5 0 0 1 0 1H.5a.5.5 0 0 1-.5-.5" style="fill: rgb(255, 255, 255);"></path></g></svg>